<svg xmlns="http://www.w3.org/2000/svg" viewBox="0 0 64 80" width="64" height="80">
  <rect x="16" y="0" width="8" height="8" fill="#e84040"/>
  <rect x="24" y="0" width="8" height="8" fill="#e84040"/>
  <rect x="32" y="0" width="8" height="8" fill="#e84040"/>
  <rect x="40" y="0" width="8" height="8" fill="#e84040"/>
  <rect x="48" y="0" width="8" height="8" fill="#e84040"/>
  <rect x="8" y="8" width="8" height="8" fill="#e84040"/>
  <rect x="16" y="8" width="8" height="8" fill="#e84040"/>
  <rect x="24" y="8" width="8" height="8" fill="#e84040"/>
  <rect x="32" y="8" width="8" height="8" fill="#e84040"/>
  <rect x="40" y="8" width="8" height="8" fill="#c8c8c8"/>
  <rect x="48" y="8" width="8" height="8" fill="#e84040"/>
  <rect x="56" y="8" width="8" height="8" fill="#e84040"/>
  <rect x="0" y="16" width="8" height="8" fill="#e84040"/>
  <rect x="8" y="16" width="8" height="8" fill="#e84040"/>
  <rect x="16" y="16" width="8" height="8" fill="#c8c8c8"/>
  <rect x="24" y="16" width="8" height="8" fill="#e84040"/>
  <rect x="32" y="16" width="8" height="8" fill="#e84040"/>
  <rect x="40" y="16" width="8" height="8" fill="#e84040"/>
  <rect x="48" y="16" width="8" height="8" fill="#e84040"/>
  <rect x="56" y="16" width="8" height="8" fill="#e84040"/>
  <rect x="0" y="24" width="8" height="8" fill="#e84040"/>
  <rect x="8" y="24" width="8" height="8" fill="#e84040"/>
  <rect x="16" y="24" width="8" height="8" fill="#e84040"/>
  <rect x="24" y="24" width="8" height="8" fill="#e84040"/>
  <rect x="32" y="24" width="8" height="8" fill="#c8c8c8"/>
  <rect x="40" y="24" width="8" height="8" fill="#e84040"/>
  <rect x="48" y="24" width="8" height="8" fill="#e84040"/>
  <rect x="56" y="24" width="8" height="8" fill="#e84040"/>
  <rect x="0" y="32" width="8" height="8" fill="#e84040"/>
  <rect x="8" y="32" width="8" height="8" fill="#e84040"/>
  <rect x="16" y="32" width="8" height="8" fill="#e84040"/>
  <rect x="24" y="32" width="8" height="8" fill="#e84040"/>
  <rect x="32" y="32" width="8" height="8" fill="#e84040"/>
  <rect x="40" y="32" width="8" height="8" fill="#e84040"/>
  <rect x="48" y="32" width="8" height="8" fill="#e84040"/>
  <rect x="56" y="32" width="8" height="8" fill="#e84040"/>
  <rect x="8" y="40" width="8" height="8" fill="#3e2415"/>
  <rect x="16" y="40" width="8" height="8" fill="#3e2415"/>
  <rect x="24" y="40" width="8" height="8" fill="#3e2415"/>
  <rect x="32" y="40" width="8" height="8" fill="#3e2415"/>
  <rect x="40" y="40" width="8" height="8" fill="#3e2415"/>
  <rect x="48" y="40" width="8" height="8" fill="#3e2415"/>
  <rect x="56" y="40" width="8" height="8" fill="#3e2415"/>
  <rect x="16" y="48" width="8" height="8" fill="#e84040"/>
  <rect x="24" y="48" width="8" height="8" fill="#e84040"/>
  <rect x="32" y="48" width="8" height="8" fill="#e84040"/>
  <rect x="40" y="48" width="8" height="8" fill="#e84040"/>
  <rect x="48" y="48" width="8" height="8" fill="#e84040"/>
  <rect x="24" y="56" width="8" height="8" fill="#9e9e9e"/>
  <rect x="32" y="56" width="8" height="8" fill="#c8c8c8"/>
  <rect x="24" y="64" width="8" height="8" fill="#9e9e9e"/>
  <rect x="32" y="64" width="8" height="8" fill="#c8c8c8"/>
  <rect x="8" y="72" width="8" height="8" fill="#2d5a1e"/>
  <rect x="24" y="72" width="8" height="8" fill="#c8c8c8"/>
  <rect x="32" y="72" width="8" height="8" fill="#c8c8c8"/>
  <rect x="48" y="72" width="8" height="8" fill="#4a8c28"/>
</svg>