<svg xmlns="http://www.w3.org/2000/svg" viewBox="0 0 192 192" width="192" height="192">
  <rect x="80" y="0" width="8" height="8" fill="#2d5a1e"/>
  <rect x="88" y="0" width="8" height="8" fill="#2d5a1e"/>
  <rect x="96" y="0" width="8" height="8" fill="#2d5a1e"/>
  <rect x="104" y="0" width="8" height="8" fill="#2d5a1e"/>
  <rect x="112" y="0" width="8" height="8" fill="#2d5a1e"/>
  <rect x="64" y="8" width="8" height="8" fill="#2d5a1e"/>
  <rect x="72" y="8" width="8" height="8" fill="#2d5a1e"/>
  <rect x="80" y="8" width="8" height="8" fill="#2d5a1e"/>
  <rect x="88" y="8" width="8" height="8" fill="#2d5a1e"/>
  <rect x="96" y="8" width="8" height="8" fill="#2d5a1e"/>
  <rect x="104" y="8" width="8" height="8" fill="#2d5a1e"/>
  <rect x="112" y="8" width="8" height="8" fill="#2d5a1e"/>
  <rect x="120" y="8" width="8" height="8" fill="#2d5a1e"/>
  <rect x="128" y="8" width="8" height="8" fill="#2d5a1e"/>
  <rect x="56" y="16" width="8" height="8" fill="#2d5a1e"/>
  <rect x="64" y="16" width="8" height="8" fill="#4a8c28"/>
  <rect x="72" y="16" width="8" height="8" fill="#4a8c28"/>
  <rect x="80" y="16" width="8" height="8" fill="#4a8c28"/>
  <rect x="88" y="16" width="8" height="8" fill="#2d5a1e"/>
  <rect x="96" y="16" width="8" height="8" fill="#2d5a1e"/>
  <rect x="104" y="16" width="8" height="8" fill="#2d5a1e"/>
  <rect x="112" y="16" width="8" height="8" fill="#2d5a1e"/>
  <rect x="120" y="16" width="8" height="8" fill="#2d5a1e"/>
  <rect x="128" y="16" width="8" height="8" fill="#2d5a1e"/>
  <rect x="136" y="16" width="8" height="8" fill="#2d5a1e"/>
  <rect x="48" y="24" width="8" height="8" fill="#2d5a1e"/>
  <rect x="56" y="24" width="8" height="8" fill="#4a8c28"/>
  <rect x="64" y="24" width="8" height="8" fill="#4a8c28"/>
  <rect x="72" y="24" width="8" height="8" fill="#4a8c28"/>
  <rect x="80" y="24" width="8" height="8" fill="#6ebe3a"/>
  <rect x="88" y="24" width="8" height="8" fill="#4a8c28"/>
  <rect x="96" y="24" width="8" height="8" fill="#2d5a1e"/>
  <rect x="104" y="24" width="8" height="8" fill="#4a8c28"/>
  <rect x="112" y="24" width="8" height="8" fill="#4a8c28"/>
  <rect x="120" y="24" width="8" height="8" fill="#4a8c28"/>
  <rect x="128" y="24" width="8" height="8" fill="#2d5a1e"/>
  <rect x="136" y="24" width="8" height="8" fill="#2d5a1e"/>
  <rect x="144" y="24" width="8" height="8" fill="#2d5a1e"/>
  <rect x="40" y="32" width="8" height="8" fill="#2d5a1e"/>
  <rect x="48" y="32" width="8" height="8" fill="#4a8c28"/>
  <rect x="56" y="32" width="8" height="8" fill="#4a8c28"/>
  <rect x="64" y="32" width="8" height="8" fill="#4a8c28"/>
  <rect x="72" y="32" width="8" height="8" fill="#6ebe3a"/>
  <rect x="80" y="32" width="8" height="8" fill="#6ebe3a"/>
  <rect x="88" y="32" width="8" height="8" fill="#6ebe3a"/>
  <rect x="96" y="32" width="8" height="8" fill="#4a8c28"/>
  <rect x="104" y="32" width="8" height="8" fill="#4a8c28"/>
  <rect x="112" y="32" width="8" height="8" fill="#4a8c28"/>
  <rect x="120" y="32" width="8" height="8" fill="#6ebe3a"/>
  <rect x="128" y="32" width="8" height="8" fill="#4a8c28"/>
  <rect x="136" y="32" width="8" height="8" fill="#2d5a1e"/>
  <rect x="144" y="32" width="8" height="8" fill="#2d5a1e"/>
  <rect x="152" y="32" width="8" height="8" fill="#2d5a1e"/>
  <rect x="40" y="40" width="8" height="8" fill="#2d5a1e"/>
  <rect x="48" y="40" width="8" height="8" fill="#4a8c28"/>
  <rect x="56" y="40" width="8" height="8" fill="#4a8c28"/>
  <rect x="64" y="40" width="8" height="8" fill="#4a8c28"/>
  <rect x="72" y="40" width="8" height="8" fill="#4a8c28"/>
  <rect x="80" y="40" width="8" height="8" fill="#6ebe3a"/>
  <rect x="88" y="40" width="8" height="8" fill="#4a8c28"/>
  <rect x="96" y="40" width="8" height="8" fill="#4a8c28"/>
  <rect x="104" y="40" width="8" height="8" fill="#4a8c28"/>
  <rect x="112" y="40" width="8" height="8" fill="#6ebe3a"/>
  <rect x="120" y="40" width="8" height="8" fill="#6ebe3a"/>
  <rect x="128" y="40" width="8" height="8" fill="#6ebe3a"/>
  <rect x="136" y="40" width="8" height="8" fill="#4a8c28"/>
  <rect x="144" y="40" width="8" height="8" fill="#2d5a1e"/>
  <rect x="152" y="40" width="8" height="8" fill="#2d5a1e"/>
  <rect x="32" y="48" width="8" height="8" fill="#2d5a1e"/>
  <rect x="40" y="48" width="8" height="8" fill="#2d5a1e"/>
  <rect x="48" y="48" width="8" height="8" fill="#4a8c28"/>
  <rect x="56" y="48" width="8" height="8" fill="#4a8c28"/>
  <rect x="64" y="48" width="8" height="8" fill="#4a8c28"/>
  <rect x="72" y="48" width="8" height="8" fill="#4a8c28"/>
  <rect x="80" y="48" width="8" height="8" fill="#4a8c28"/>
  <rect x="88" y="48" width="8" height="8" fill="#4a8c28"/>
  <rect x="96" y="48" width="8" height="8" fill="#4a8c28"/>
  <rect x="104" y="48" width="8" height="8" fill="#4a8c28"/>
  <rect x="112" y="48" width="8" height="8" fill="#4a8c28"/>
  <rect x="120" y="48" width="8" height="8" fill="#6ebe3a"/>
  <rect x="128" y="48" width="8" height="8" fill="#4a8c28"/>
  <rect x="136" y="48" width="8" height="8" fill="#4a8c28"/>
  <rect x="144" y="48" width="8" height="8" fill="#2d5a1e"/>
  <rect x="152" y="48" width="8" height="8" fill="#2d5a1e"/>
  <rect x="160" y="48" width="8" height="8" fill="#2d5a1e"/>
  <rect x="32" y="56" width="8" height="8" fill="#2d5a1e"/>
  <rect x="40" y="56" width="8" height="8" fill="#2d5a1e"/>
  <rect x="48" y="56" width="8" height="8" fill="#2d5a1e"/>
  <rect x="56" y="56" width="8" height="8" fill="#4a8c28"/>
  <rect x="64" y="56" width="8" height="8" fill="#4a8c28"/>
  <rect x="72" y="56" width="8" height="8" fill="#4a8c28"/>
  <rect x="80" y="56" width="8" height="8" fill="#4a8c28"/>
  <rect x="88" y="56" width="8" height="8" fill="#4a8c28"/>
  <rect x="96" y="56" width="8" height="8" fill="#4a8c28"/>
  <rect x="104" y="56" width="8" height="8" fill="#4a8c28"/>
  <rect x="112" y="56" width="8" height="8" fill="#4a8c28"/>
  <rect x="120" y="56" width="8" height="8" fill="#4a8c28"/>
  <rect x="128" y="56" width="8" height="8" fill="#4a8c28"/>
  <rect x="136" y="56" width="8" height="8" fill="#4a8c28"/>
  <rect x="144" y="56" width="8" height="8" fill="#2d5a1e"/>
  <rect x="152" y="56" width="8" height="8" fill="#2d5a1e"/>
  <rect x="160" y="56" width="8" height="8" fill="#2d5a1e"/>
  <rect x="32" y="64" width="8" height="8" fill="#2d5a1e"/>
  <rect x="40" y="64" width="8" height="8" fill="#2d5a1e"/>
  <rect x="48" y="64" width="8" height="8" fill="#2d5a1e"/>
  <rect x="56" y="64" width="8" height="8" fill="#2d5a1e"/>
  <rect x="64" y="64" width="8" height="8" fill="#4a8c28"/>
  <rect x="72" y="64" width="8" height="8" fill="#4a8c28"/>
  <rect x="80" y="64" width="8" height="8" fill="#4a8c28"/>
  <rect x="88" y="64" width="8" height="8" fill="#4a8c28"/>
  <rect x="96" y="64" width="8" height="8" fill="#4a8c28"/>
  <rect x="104" y="64" width="8" height="8" fill="#4a8c28"/>
  <rect x="112" y="64" width="8" height="8" fill="#4a8c28"/>
  <rect x="120" y="64" width="8" height="8" fill="#4a8c28"/>
  <rect x="128" y="64" width="8" height="8" fill="#4a8c28"/>
  <rect x="136" y="64" width="8" height="8" fill="#2d5a1e"/>
  <rect x="144" y="64" width="8" height="8" fill="#2d5a1e"/>
  <rect x="152" y="64" width="8" height="8" fill="#2d5a1e"/>
  <rect x="160" y="64" width="8" height="8" fill="#2d5a1e"/>
  <rect x="32" y="72" width="8" height="8" fill="#2d5a1e"/>
  <rect x="40" y="72" width="8" height="8" fill="#2d5a1e"/>
  <rect x="48" y="72" width="8" height="8" fill="#2d5a1e"/>
  <rect x="56" y="72" width="8" height="8" fill="#2d5a1e"/>
  <rect x="64" y="72" width="8" height="8" fill="#2d5a1e"/>
  <rect x="72" y="72" width="8" height="8" fill="#4a8c28"/>
  <rect x="80" y="72" width="8" height="8" fill="#4a8c28"/>
  <rect x="88" y="72" width="8" height="8" fill="#4a8c28"/>
  <rect x="96" y="72" width="8" height="8" fill="#4a8c28"/>
  <rect x="104" y="72" width="8" height="8" fill="#4a8c28"/>
  <rect x="112" y="72" width="8" height="8" fill="#4a8c28"/>
  <rect x="120" y="72" width="8" height="8" fill="#4a8c28"/>
  <rect x="128" y="72" width="8" height="8" fill="#2d5a1e"/>
  <rect x="136" y="72" width="8" height="8" fill="#2d5a1e"/>
  <rect x="144" y="72" width="8" height="8" fill="#2d5a1e"/>
  <rect x="152" y="72" width="8" height="8" fill="#2d5a1e"/>
  <rect x="160" y="72" width="8" height="8" fill="#2d5a1e"/>
  <rect x="32" y="80" width="8" height="8" fill="#2d5a1e"/>
  <rect x="40" y="80" width="8" height="8" fill="#2d5a1e"/>
  <rect x="48" y="80" width="8" height="8" fill="#2d5a1e"/>
  <rect x="56" y="80" width="8" height="8" fill="#2d5a1e"/>
  <rect x="64" y="80" width="8" height="8" fill="#2d5a1e"/>
  <rect x="72" y="80" width="8" height="8" fill="#4a8c28"/>
  <rect x="80" y="80" width="8" height="8" fill="#4a8c28"/>
  <rect x="88" y="80" width="8" height="8" fill="#4a8c28"/>
  <rect x="96" y="80" width="8" height="8" fill="#4a8c28"/>
  <rect x="104" y="80" width="8" height="8" fill="#4a8c28"/>
  <rect x="112" y="80" width="8" height="8" fill="#4a8c28"/>
  <rect x="120" y="80" width="8" height="8" fill="#4a8c28"/>
  <rect x="128" y="80" width="8" height="8" fill="#2d5a1e"/>
  <rect x="136" y="80" width="8" height="8" fill="#2d5a1e"/>
  <rect x="144" y="80" width="8" height="8" fill="#2d5a1e"/>
  <rect x="152" y="80" width="8" height="8" fill="#2d5a1e"/>
  <rect x="160" y="80" width="8" height="8" fill="#2d5a1e"/>
  <rect x="40" y="88" width="8" height="8" fill="#2d5a1e"/>
  <rect x="48" y="88" width="8" height="8" fill="#2d5a1e"/>
  <rect x="56" y="88" width="8" height="8" fill="#2d5a1e"/>
  <rect x="64" y="88" width="8" height="8" fill="#2d5a1e"/>
  <rect x="72" y="88" width="8" height="8" fill="#4a8c28"/>
  <rect x="80" y="88" width="8" height="8" fill="#4a8c28"/>
  <rect x="88" y="88" width="8" height="8" fill="#4a8c28"/>
  <rect x="96" y="88" width="8" height="8" fill="#4a8c28"/>
  <rect x="104" y="88" width="8" height="8" fill="#4a8c28"/>
  <rect x="112" y="88" width="8" height="8" fill="#4a8c28"/>
  <rect x="120" y="88" width="8" height="8" fill="#4a8c28"/>
  <rect x="128" y="88" width="8" height="8" fill="#2d5a1e"/>
  <rect x="136" y="88" width="8" height="8" fill="#2d5a1e"/>
  <rect x="144" y="88" width="8" height="8" fill="#2d5a1e"/>
  <rect x="152" y="88" width="8" height="8" fill="#2d5a1e"/>
  <rect x="40" y="96" width="8" height="8" fill="#2d5a1e"/>
  <rect x="48" y="96" width="8" height="8" fill="#2d5a1e"/>
  <rect x="56" y="96" width="8" height="8" fill="#2d5a1e"/>
  <rect x="64" y="96" width="8" height="8" fill="#2d5a1e"/>
  <rect x="72" y="96" width="8" height="8" fill="#2d5a1e"/>
  <rect x="80" y="96" width="8" height="8" fill="#4a8c28"/>
  <rect x="88" y="96" width="8" height="8" fill="#4a8c28"/>
  <rect x="96" y="96" width="8" height="8" fill="#4a8c28"/>
  <rect x="104" y="96" width="8" height="8" fill="#4a8c28"/>
  <rect x="112" y="96" width="8" height="8" fill="#4a8c28"/>
  <rect x="120" y="96" width="8" height="8" fill="#2d5a1e"/>
  <rect x="128" y="96" width="8" height="8" fill="#2d5a1e"/>
  <rect x="136" y="96" width="8" height="8" fill="#2d5a1e"/>
  <rect x="144" y="96" width="8" height="8" fill="#2d5a1e"/>
  <rect x="152" y="96" width="8" height="8" fill="#2d5a1e"/>
  <rect x="48" y="104" width="8" height="8" fill="#2d5a1e"/>
  <rect x="56" y="104" width="8" height="8" fill="#2d5a1e"/>
  <rect x="64" y="104" width="8" height="8" fill="#2d5a1e"/>
  <rect x="72" y="104" width="8" height="8" fill="#2d5a1e"/>
  <rect x="80" y="104" width="8" height="8" fill="#2d5a1e"/>
  <rect x="88" y="104" width="8" height="8" fill="#4a8c28"/>
  <rect x="96" y="104" width="8" height="8" fill="#4a8c28"/>
  <rect x="104" y="104" width="8" height="8" fill="#4a8c28"/>
  <rect x="112" y="104" width="8" height="8" fill="#2d5a1e"/>
  <rect x="120" y="104" width="8" height="8" fill="#2d5a1e"/>
  <rect x="128" y="104" width="8" height="8" fill="#2d5a1e"/>
  <rect x="136" y="104" width="8" height="8" fill="#2d5a1e"/>
  <rect x="144" y="104" width="8" height="8" fill="#2d5a1e"/>
  <rect x="56" y="112" width="8" height="8" fill="#2d5a1e"/>
  <rect x="64" y="112" width="8" height="8" fill="#0a1e0a"/>
  <rect x="72" y="112" width="8" height="8" fill="#0a1e0a"/>
  <rect x="80" y="112" width="8" height="8" fill="#2d5a1e"/>
  <rect x="88" y="112" width="8" height="8" fill="#2d5a1e"/>
  <rect x="96" y="112" width="8" height="8" fill="#2d5a1e"/>
  <rect x="104" y="112" width="8" height="8" fill="#2d5a1e"/>
  <rect x="112" y="112" width="8" height="8" fill="#0a1e0a"/>
  <rect x="120" y="112" width="8" height="8" fill="#0a1e0a"/>
  <rect x="128" y="112" width="8" height="8" fill="#2d5a1e"/>
  <rect x="136" y="112" width="8" height="8" fill="#2d5a1e"/>
  <rect x="64" y="120" width="8" height="8" fill="#2d5a1e"/>
  <rect x="72" y="120" width="8" height="8" fill="#2d5a1e"/>
  <rect x="80" y="120" width="8" height="8" fill="#2d5a1e"/>
  <rect x="88" y="120" width="8" height="8" fill="#2d5a1e"/>
  <rect x="96" y="120" width="8" height="8" fill="#2d5a1e"/>
  <rect x="104" y="120" width="8" height="8" fill="#2d5a1e"/>
  <rect x="112" y="120" width="8" height="8" fill="#2d5a1e"/>
  <rect x="120" y="120" width="8" height="8" fill="#2d5a1e"/>
  <rect x="128" y="120" width="8" height="8" fill="#2d5a1e"/>
  <rect x="80" y="128" width="8" height="8" fill="#2d5a1e"/>
  <rect x="88" y="128" width="8" height="8" fill="#2d5a1e"/>
  <rect x="96" y="128" width="8" height="8" fill="#2d5a1e"/>
  <rect x="104" y="128" width="8" height="8" fill="#2d5a1e"/>
  <rect x="112" y="128" width="8" height="8" fill="#2d5a1e"/>
  <rect x="80" y="136" width="8" height="8" fill="#5c3a1e"/>
  <rect x="88" y="136" width="8" height="8" fill="#3e2415"/>
  <rect x="96" y="136" width="8" height="8" fill="#8b6438"/>
  <rect x="104" y="136" width="8" height="8" fill="#5c3a1e"/>
  <rect x="80" y="144" width="8" height="8" fill="#5c3a1e"/>
  <rect x="88" y="144" width="8" height="8" fill="#3e2415"/>
  <rect x="96" y="144" width="8" height="8" fill="#8b6438"/>
  <rect x="104" y="144" width="8" height="8" fill="#5c3a1e"/>
  <rect x="80" y="152" width="8" height="8" fill="#5c3a1e"/>
  <rect x="88" y="152" width="8" height="8" fill="#3e2415"/>
  <rect x="96" y="152" width="8" height="8" fill="#8b6438"/>
  <rect x="104" y="152" width="8" height="8" fill="#5c3a1e"/>
  <rect x="80" y="160" width="8" height="8" fill="#5c3a1e"/>
  <rect x="88" y="160" width="8" height="8" fill="#3e2415"/>
  <rect x="96" y="160" width="8" height="8" fill="#8b6438"/>
  <rect x="104" y="160" width="8" height="8" fill="#5c3a1e"/>
  <rect x="80" y="168" width="8" height="8" fill="#5c3a1e"/>
  <rect x="88" y="168" width="8" height="8" fill="#3e2415"/>
  <rect x="96" y="168" width="8" height="8" fill="#8b6438"/>
  <rect x="104" y="168" width="8" height="8" fill="#5c3a1e"/>
  <rect x="72" y="176" width="8" height="8" fill="#5c3a1e"/>
  <rect x="80" y="176" width="8" height="8" fill="#5c3a1e"/>
  <rect x="88" y="176" width="8" height="8" fill="#3e2415"/>
  <rect x="96" y="176" width="8" height="8" fill="#8b6438"/>
  <rect x="104" y="176" width="8" height="8" fill="#5c3a1e"/>
  <rect x="112" y="176" width="8" height="8" fill="#5c3a1e"/>
  <rect x="64" y="184" width="8" height="8" fill="#5c3a1e"/>
  <rect x="80" y="184" width="8" height="8" fill="#5c3a1e"/>
  <rect x="88" y="184" width="8" height="8" fill="#3e2415"/>
  <rect x="96" y="184" width="8" height="8" fill="#8b6438"/>
  <rect x="104" y="184" width="8" height="8" fill="#5c3a1e"/>
  <rect x="120" y="184" width="8" height="8" fill="#5c3a1e"/>
</svg>