<svg xmlns="http://www.w3.org/2000/svg" viewBox="0 0 128 256" width="128" height="256">
  <rect x="64" y="16" width="8" height="8" fill="#a4de6a"/>
  <rect x="64" y="24" width="8" height="8" fill="#6ebe3a"/>
  <rect x="56" y="32" width="8" height="8" fill="#6ebe3a"/>
  <rect x="64" y="32" width="8" height="8" fill="#6ebe3a"/>
  <rect x="72" y="32" width="8" height="8" fill="#6ebe3a"/>
  <rect x="56" y="40" width="8" height="8" fill="#6ebe3a"/>
  <rect x="64" y="40" width="8" height="8" fill="#6ebe3a"/>
  <rect x="72" y="40" width="8" height="8" fill="#6ebe3a"/>
  <rect x="56" y="48" width="8" height="8" fill="#6ebe3a"/>
  <rect x="64" y="48" width="8" height="8" fill="#a4de6a"/>
  <rect x="72" y="48" width="8" height="8" fill="#6ebe3a"/>
  <rect x="80" y="48" width="8" height="8" fill="#6ebe3a"/>
  <rect x="48" y="56" width="8" height="8" fill="#6ebe3a"/>
  <rect x="56" y="56" width="8" height="8" fill="#6ebe3a"/>
  <rect x="64" y="56" width="8" height="8" fill="#6ebe3a"/>
  <rect x="72" y="56" width="8" height="8" fill="#6ebe3a"/>
  <rect x="80" y="56" width="8" height="8" fill="#6ebe3a"/>
  <rect x="48" y="64" width="8" height="8" fill="#6ebe3a"/>
  <rect x="56" y="64" width="8" height="8" fill="#6ebe3a"/>
  <rect x="64" y="64" width="8" height="8" fill="#6ebe3a"/>
  <rect x="72" y="64" width="8" height="8" fill="#6ebe3a"/>
  <rect x="80" y="64" width="8" height="8" fill="#6ebe3a"/>
  <rect x="40" y="72" width="8" height="8" fill="#6ebe3a"/>
  <rect x="48" y="72" width="8" height="8" fill="#6ebe3a"/>
  <rect x="56" y="72" width="8" height="8" fill="#6ebe3a"/>
  <rect x="64" y="72" width="8" height="8" fill="#6ebe3a"/>
  <rect x="72" y="72" width="8" height="8" fill="#6ebe3a"/>
  <rect x="80" y="72" width="8" height="8" fill="#6ebe3a"/>
  <rect x="88" y="72" width="8" height="8" fill="#6ebe3a"/>
  <rect x="40" y="80" width="8" height="8" fill="#6ebe3a"/>
  <rect x="48" y="80" width="8" height="8" fill="#6ebe3a"/>
  <rect x="56" y="80" width="8" height="8" fill="#6ebe3a"/>
  <rect x="64" y="80" width="8" height="8" fill="#6ebe3a"/>
  <rect x="72" y="80" width="8" height="8" fill="#6ebe3a"/>
  <rect x="80" y="80" width="8" height="8" fill="#6ebe3a"/>
  <rect x="88" y="80" width="8" height="8" fill="#6ebe3a"/>
  <rect x="40" y="88" width="8" height="8" fill="#6ebe3a"/>
  <rect x="48" y="88" width="8" height="8" fill="#6ebe3a"/>
  <rect x="56" y="88" width="8" height="8" fill="#6ebe3a"/>
  <rect x="64" y="88" width="8" height="8" fill="#6ebe3a"/>
  <rect x="72" y="88" width="8" height="8" fill="#6ebe3a"/>
  <rect x="80" y="88" width="8" height="8" fill="#6ebe3a"/>
  <rect x="88" y="88" width="8" height="8" fill="#6ebe3a"/>
  <rect x="32" y="96" width="8" height="8" fill="#6ebe3a"/>
  <rect x="40" y="96" width="8" height="8" fill="#6ebe3a"/>
  <rect x="48" y="96" width="8" height="8" fill="#6ebe3a"/>
  <rect x="56" y="96" width="8" height="8" fill="#6ebe3a"/>
  <rect x="64" y="96" width="8" height="8" fill="#6ebe3a"/>
  <rect x="72" y="96" width="8" height="8" fill="#6ebe3a"/>
  <rect x="80" y="96" width="8" height="8" fill="#6ebe3a"/>
  <rect x="88" y="96" width="8" height="8" fill="#6ebe3a"/>
  <rect x="96" y="96" width="8" height="8" fill="#6ebe3a"/>
  <rect x="32" y="104" width="8" height="8" fill="#6ebe3a"/>
  <rect x="40" y="104" width="8" height="8" fill="#6ebe3a"/>
  <rect x="48" y="104" width="8" height="8" fill="#6ebe3a"/>
  <rect x="56" y="104" width="8" height="8" fill="#6ebe3a"/>
  <rect x="64" y="104" width="8" height="8" fill="#6ebe3a"/>
  <rect x="72" y="104" width="8" height="8" fill="#6ebe3a"/>
  <rect x="80" y="104" width="8" height="8" fill="#6ebe3a"/>
  <rect x="88" y="104" width="8" height="8" fill="#6ebe3a"/>
  <rect x="96" y="104" width="8" height="8" fill="#6ebe3a"/>
  <rect x="24" y="112" width="8" height="8" fill="#6ebe3a"/>
  <rect x="32" y="112" width="8" height="8" fill="#6ebe3a"/>
  <rect x="40" y="112" width="8" height="8" fill="#6ebe3a"/>
  <rect x="48" y="112" width="8" height="8" fill="#6ebe3a"/>
  <rect x="56" y="112" width="8" height="8" fill="#6ebe3a"/>
  <rect x="64" y="112" width="8" height="8" fill="#6ebe3a"/>
  <rect x="72" y="112" width="8" height="8" fill="#6ebe3a"/>
  <rect x="80" y="112" width="8" height="8" fill="#6ebe3a"/>
  <rect x="88" y="112" width="8" height="8" fill="#6ebe3a"/>
  <rect x="96" y="112" width="8" height="8" fill="#6ebe3a"/>
  <rect x="104" y="112" width="8" height="8" fill="#6ebe3a"/>
  <rect x="32" y="120" width="8" height="8" fill="#4a8c28"/>
  <rect x="40" y="120" width="8" height="8" fill="#4a8c28"/>
  <rect x="48" y="120" width="8" height="8" fill="#4a8c28"/>
  <rect x="56" y="120" width="8" height="8" fill="#4a8c28"/>
  <rect x="64" y="120" width="8" height="8" fill="#4a8c28"/>
  <rect x="72" y="120" width="8" height="8" fill="#4a8c28"/>
  <rect x="80" y="120" width="8" height="8" fill="#4a8c28"/>
  <rect x="88" y="120" width="8" height="8" fill="#4a8c28"/>
  <rect x="96" y="120" width="8" height="8" fill="#4a8c28"/>
  <rect x="32" y="128" width="8" height="8" fill="#4a8c28"/>
  <rect x="40" y="128" width="8" height="8" fill="#1a3a1a"/>
  <rect x="48" y="128" width="8" height="8" fill="#4a8c28"/>
  <rect x="56" y="128" width="8" height="8" fill="#4a8c28"/>
  <rect x="64" y="128" width="8" height="8" fill="#4a8c28"/>
  <rect x="72" y="128" width="8" height="8" fill="#4a8c28"/>
  <rect x="80" y="128" width="8" height="8" fill="#4a8c28"/>
  <rect x="88" y="128" width="8" height="8" fill="#1a3a1a"/>
  <rect x="96" y="128" width="8" height="8" fill="#4a8c28"/>
  <rect x="104" y="128" width="8" height="8" fill="#4a8c28"/>
  <rect x="24" y="136" width="8" height="8" fill="#4a8c28"/>
  <rect x="32" y="136" width="8" height="8" fill="#4a8c28"/>
  <rect x="40" y="136" width="8" height="8" fill="#4a8c28"/>
  <rect x="48" y="136" width="8" height="8" fill="#4a8c28"/>
  <rect x="56" y="136" width="8" height="8" fill="#4a8c28"/>
  <rect x="64" y="136" width="8" height="8" fill="#4a8c28"/>
  <rect x="72" y="136" width="8" height="8" fill="#4a8c28"/>
  <rect x="80" y="136" width="8" height="8" fill="#4a8c28"/>
  <rect x="88" y="136" width="8" height="8" fill="#4a8c28"/>
  <rect x="96" y="136" width="8" height="8" fill="#4a8c28"/>
  <rect x="104" y="136" width="8" height="8" fill="#4a8c28"/>
  <rect x="16" y="144" width="8" height="8" fill="#4a8c28"/>
  <rect x="24" y="144" width="8" height="8" fill="#4a8c28"/>
  <rect x="32" y="144" width="8" height="8" fill="#4a8c28"/>
  <rect x="40" y="144" width="8" height="8" fill="#4a8c28"/>
  <rect x="48" y="144" width="8" height="8" fill="#4a8c28"/>
  <rect x="56" y="144" width="8" height="8" fill="#4a8c28"/>
  <rect x="64" y="144" width="8" height="8" fill="#4a8c28"/>
  <rect x="72" y="144" width="8" height="8" fill="#4a8c28"/>
  <rect x="80" y="144" width="8" height="8" fill="#4a8c28"/>
  <rect x="88" y="144" width="8" height="8" fill="#4a8c28"/>
  <rect x="96" y="144" width="8" height="8" fill="#4a8c28"/>
  <rect x="104" y="144" width="8" height="8" fill="#4a8c28"/>
  <rect x="112" y="144" width="8" height="8" fill="#4a8c28"/>
  <rect x="32" y="152" width="8" height="8" fill="#2d5a1e"/>
  <rect x="40" y="152" width="8" height="8" fill="#2d5a1e"/>
  <rect x="48" y="152" width="8" height="8" fill="#2d5a1e"/>
  <rect x="56" y="152" width="8" height="8" fill="#2d5a1e"/>
  <rect x="64" y="152" width="8" height="8" fill="#2d5a1e"/>
  <rect x="72" y="152" width="8" height="8" fill="#2d5a1e"/>
  <rect x="80" y="152" width="8" height="8" fill="#2d5a1e"/>
  <rect x="88" y="152" width="8" height="8" fill="#2d5a1e"/>
  <rect x="96" y="152" width="8" height="8" fill="#2d5a1e"/>
  <rect x="24" y="160" width="8" height="8" fill="#2d5a1e"/>
  <rect x="32" y="160" width="8" height="8" fill="#1a3a1a"/>
  <rect x="40" y="160" width="8" height="8" fill="#2d5a1e"/>
  <rect x="48" y="160" width="8" height="8" fill="#2d5a1e"/>
  <rect x="56" y="160" width="8" height="8" fill="#2d5a1e"/>
  <rect x="64" y="160" width="8" height="8" fill="#2d5a1e"/>
  <rect x="72" y="160" width="8" height="8" fill="#2d5a1e"/>
  <rect x="80" y="160" width="8" height="8" fill="#2d5a1e"/>
  <rect x="88" y="160" width="8" height="8" fill="#2d5a1e"/>
  <rect x="96" y="160" width="8" height="8" fill="#1a3a1a"/>
  <rect x="104" y="160" width="8" height="8" fill="#2d5a1e"/>
  <rect x="16" y="168" width="8" height="8" fill="#2d5a1e"/>
  <rect x="24" y="168" width="8" height="8" fill="#2d5a1e"/>
  <rect x="32" y="168" width="8" height="8" fill="#2d5a1e"/>
  <rect x="40" y="168" width="8" height="8" fill="#2d5a1e"/>
  <rect x="48" y="168" width="8" height="8" fill="#2d5a1e"/>
  <rect x="56" y="168" width="8" height="8" fill="#2d5a1e"/>
  <rect x="64" y="168" width="8" height="8" fill="#2d5a1e"/>
  <rect x="72" y="168" width="8" height="8" fill="#2d5a1e"/>
  <rect x="80" y="168" width="8" height="8" fill="#2d5a1e"/>
  <rect x="88" y="168" width="8" height="8" fill="#2d5a1e"/>
  <rect x="96" y="168" width="8" height="8" fill="#2d5a1e"/>
  <rect x="104" y="168" width="8" height="8" fill="#2d5a1e"/>
  <rect x="112" y="168" width="8" height="8" fill="#2d5a1e"/>
  <rect x="8" y="176" width="8" height="8" fill="#2d5a1e"/>
  <rect x="16" y="176" width="8" height="8" fill="#2d5a1e"/>
  <rect x="24" y="176" width="8" height="8" fill="#2d5a1e"/>
  <rect x="32" y="176" width="8" height="8" fill="#2d5a1e"/>
  <rect x="40" y="176" width="8" height="8" fill="#2d5a1e"/>
  <rect x="48" y="176" width="8" height="8" fill="#2d5a1e"/>
  <rect x="56" y="176" width="8" height="8" fill="#2d5a1e"/>
  <rect x="64" y="176" width="8" height="8" fill="#2d5a1e"/>
  <rect x="72" y="176" width="8" height="8" fill="#2d5a1e"/>
  <rect x="80" y="176" width="8" height="8" fill="#2d5a1e"/>
  <rect x="88" y="176" width="8" height="8" fill="#2d5a1e"/>
  <rect x="96" y="176" width="8" height="8" fill="#2d5a1e"/>
  <rect x="104" y="176" width="8" height="8" fill="#2d5a1e"/>
  <rect x="112" y="176" width="8" height="8" fill="#2d5a1e"/>
  <rect x="120" y="176" width="8" height="8" fill="#2d5a1e"/>
  <rect x="48" y="184" width="8" height="8" fill="#5c3a1e"/>
  <rect x="56" y="184" width="8" height="8" fill="#5c3a1e"/>
  <rect x="64" y="184" width="8" height="8" fill="#8b6438"/>
  <rect x="72" y="184" width="8" height="8" fill="#5c3a1e"/>
  <rect x="48" y="192" width="8" height="8" fill="#5c3a1e"/>
  <rect x="56" y="192" width="8" height="8" fill="#5c3a1e"/>
  <rect x="64" y="192" width="8" height="8" fill="#8b6438"/>
  <rect x="72" y="192" width="8" height="8" fill="#5c3a1e"/>
  <rect x="48" y="200" width="8" height="8" fill="#5c3a1e"/>
  <rect x="56" y="200" width="8" height="8" fill="#5c3a1e"/>
  <rect x="64" y="200" width="8" height="8" fill="#8b6438"/>
  <rect x="72" y="200" width="8" height="8" fill="#5c3a1e"/>
  <rect x="48" y="208" width="8" height="8" fill="#5c3a1e"/>
  <rect x="56" y="208" width="8" height="8" fill="#5c3a1e"/>
  <rect x="64" y="208" width="8" height="8" fill="#8b6438"/>
  <rect x="72" y="208" width="8" height="8" fill="#5c3a1e"/>
  <rect x="48" y="216" width="8" height="8" fill="#5c3a1e"/>
  <rect x="56" y="216" width="8" height="8" fill="#5c3a1e"/>
  <rect x="64" y="216" width="8" height="8" fill="#8b6438"/>
  <rect x="72" y="216" width="8" height="8" fill="#5c3a1e"/>
  <rect x="48" y="224" width="8" height="8" fill="#5c3a1e"/>
  <rect x="56" y="224" width="8" height="8" fill="#5c3a1e"/>
  <rect x="64" y="224" width="8" height="8" fill="#8b6438"/>
  <rect x="72" y="224" width="8" height="8" fill="#5c3a1e"/>
  <rect x="48" y="232" width="8" height="8" fill="#5c3a1e"/>
  <rect x="56" y="232" width="8" height="8" fill="#5c3a1e"/>
  <rect x="64" y="232" width="8" height="8" fill="#8b6438"/>
  <rect x="72" y="232" width="8" height="8" fill="#5c3a1e"/>
  <rect x="48" y="240" width="8" height="8" fill="#5c3a1e"/>
  <rect x="56" y="240" width="8" height="8" fill="#5c3a1e"/>
  <rect x="64" y="240" width="8" height="8" fill="#8b6438"/>
  <rect x="72" y="240" width="8" height="8" fill="#5c3a1e"/>
  <rect x="48" y="248" width="8" height="8" fill="#5c3a1e"/>
  <rect x="56" y="248" width="8" height="8" fill="#5c3a1e"/>
  <rect x="64" y="248" width="8" height="8" fill="#8b6438"/>
  <rect x="72" y="248" width="8" height="8" fill="#5c3a1e"/>
</svg>